# Blender 5.1.2
# www.blender.org
mtllib player.mtl
o Sphere
v -0.014719 1.899496 0.105839
v -0.079292 0.992611 -0.899804
v -0.066689 0.493489 -0.743677
v 0.017953 1.883459 -0.182277
v -0.063005 1.804096 -0.415202
v 0.069500 1.565366 -0.705646
v 0.052127 1.271710 -0.863202
v 0.083644 0.736181 -0.865007
v 0.094105 0.294833 -0.564716
v 0.346718 1.438561 -0.714978
v 0.262002 1.089073 -0.863706
v 0.245407 1.700990 -0.521193
v 0.435788 0.919931 -0.791682
v 0.567592 0.815895 -0.677989
v 0.303187 0.572986 -0.743780
v 0.543954 1.270785 -0.673897
v 0.345246 0.353352 -0.532643
v 0.398037 0.248600 -0.313165
v 0.618193 1.452944 -0.484084
v 0.708668 1.000000 -0.561082
v 0.561860 0.561325 -0.565235
v 0.188362 0.166284 -0.296943
v 0.446754 1.709616 -0.352401
v 0.781428 1.177426 -0.418692
v 0.781428 0.822574 -0.418692
v 0.625987 0.430098 -0.323514
v 0.271055 1.839600 -0.212245
v 0.496605 1.757813 -0.040010
v 0.765203 1.427890 -0.234827
v 0.869440 1.000000 -0.247177
v 0.826797 0.715008 -0.242835
v 0.900470 1.103960 -0.058072
v 0.698172 0.424929 -0.065000
v 0.151602 0.113548 -0.101297
v 0.664415 1.622362 0.043857
v 0.831445 1.346682 0.067191
v 0.866153 0.736373 0.070177
v 0.744347 1.447390 0.256787
v 0.860616 1.089077 0.276781
v 0.805283 0.737387 0.316339
v 0.669901 0.424929 0.207126
v 0.410173 0.188807 0.002293
v 0.539644 1.575071 0.447720
v 0.462964 0.358477 0.440486
v 0.177928 1.887779 0.023175
v 0.370470 1.806351 0.199373
v 0.681191 1.263626 0.539559
v 0.689186 0.910923 0.585056
v 0.620376 0.572110 0.505781
v 0.444538 1.426571 0.661911
v 0.487090 1.088676 0.756556
v 0.444538 0.573429 0.661911
v 0.379491 0.245723 0.329763
v 0.418692 0.822574 0.781428
v 0.226049 1.701354 0.532110
v 0.234827 1.427890 0.765203
v 0.247997 1.089077 0.869347
v 0.234827 0.572110 0.765203
v 0.172072 0.300049 0.548929
v 0.202256 0.166284 0.287660
v 0.092360 1.839600 0.331645
v -0.084074 1.066921 0.901712
v 0.087781 0.822574 0.882172
v -0.067191 0.653318 0.831445
v -0.072455 1.575071 0.697437
v -0.067191 1.346682 0.831445
v -0.072455 0.424929 0.697437
v 0.086145 0.115233 0.161166
v -0.156970 1.751400 0.481524
v -0.256493 1.177426 0.848613
v -0.256493 0.822574 0.848613
v -0.356824 0.557671 0.707781
v -0.333838 1.575072 0.616620
v -0.380257 1.346682 0.742442
v -0.595665 1.103961 0.677791
v -0.440006 1.000000 0.789567
v -0.126878 0.188364 0.390314
v -0.513558 0.717905 0.691658
v -0.341702 0.358477 0.540003
v -0.228369 1.832173 0.265908
v -0.544396 1.575072 0.441929
v -0.635432 1.346682 0.540409
v -0.804260 1.089079 0.412833
v -0.684730 0.822574 0.563096
v -0.627048 0.552610 0.476239
v -0.364170 0.249350 0.346488
v -0.079825 0.100504 0.071040
v -0.730614 1.432485 0.312912
v -0.179055 1.887348 -0.017635
v -0.499369 1.725090 0.230959
v -0.900787 1.066922 0.093456
v -0.848096 0.822574 0.258198
v -0.765203 0.572110 0.234827
v -0.584124 0.358477 0.259157
v -0.398692 0.195888 0.125608
v -0.796313 1.427890 0.081031
v -0.684766 0.409349 -0.039355
v -0.882346 1.177426 -0.086008
v -0.860410 0.717904 -0.042744
v -0.346454 1.836246 -0.007505
v -0.563684 1.706653 -0.082691
v -0.766706 1.427890 -0.229873
v -0.860615 0.910922 -0.276781
v -0.391751 0.189721 -0.131948
v -0.664003 1.426570 -0.441409
v -0.780976 1.103962 -0.451989
v -0.685860 0.822574 -0.561719
v -0.673336 0.563375 -0.435745
v -0.650981 0.421835 -0.256659
v -0.540003 1.641523 -0.341702
v -0.294379 1.798303 -0.313751
v -0.509782 1.427889 -0.617091
v -0.561804 1.089079 -0.708267
v -0.540751 0.715008 -0.670932
v -0.382898 0.286563 -0.410108
v -0.251069 1.646647 -0.582982
v -0.234827 1.427889 -0.765203
v -0.270817 1.114365 -0.857911
v -0.259499 0.729768 -0.827957
v -0.278828 0.421835 -0.641798
v -0.099031 0.194380 -0.405939
v -0.132835 0.113863 -0.124865
s 0
f 8 15 3
f 7 11 2
f 87 122 34
f 4 27 5
f 15 17 9
f 6 10 7
f 11 13 8
f 10 16 11
f 27 23 12
f 9 17 18
f 14 21 15
f 13 16 20
f 4 1 45
f 16 19 24
f 20 25 14
f 21 26 17
f 19 23 29
f 18 42 22
f 20 24 30
f 25 31 21
f 27 28 23
f 30 31 25
f 26 31 33
f 28 35 23
f 24 29 32
f 27 45 46
f 33 37 41
f 32 36 39
f 42 41 53
f 34 42 68
f 87 34 68
f 39 40 37
f 39 48 40
f 46 43 35
f 53 60 42
f 39 47 48
f 45 61 46
f 46 61 55
f 46 55 43
f 43 55 50
f 43 50 47
f 47 50 51
f 54 58 52
f 50 55 56
f 57 63 54
f 59 77 60
f 63 64 58
f 55 61 69
f 58 64 67
f 58 67 59
f 59 67 77
f 62 66 70
f 62 71 63
f 77 87 68
f 62 70 76
f 61 1 80
f 71 72 64
f 69 73 65
f 77 79 86
f 70 74 75
f 76 78 71
f 71 78 72
f 80 90 69
f 72 78 85
f 85 94 79
f 86 95 77
f 75 82 83
f 84 85 78
f 83 92 84
f 89 100 80
f 86 94 95
f 81 88 82
f 88 90 96
f 91 99 92
f 92 99 93
f 90 100 101
f 93 99 97
f 93 97 94
f 91 96 98
f 91 98 103
f 91 103 99
f 97 99 109
f 96 101 102
f 103 108 99
f 98 102 106
f 100 89 111
f 100 111 101
f 122 22 34
f 102 110 105
f 104 109 115
f 107 114 108
f 108 115 109
f 105 110 112
f 115 121 104
f 113 114 107
f 108 114 120
f 111 116 110
f 112 116 117
f 115 120 121
f 89 1 4
f 120 119 3
f 116 5 6
f 3 9 120
f 117 6 7
f 2 8 119
f 6 5 12
f 3 15 9
f 121 9 22
f 19 12 23
f 2 11 8
f 8 13 15
f 5 27 12
f 6 12 10
f 11 7 10
f 9 18 22
f 11 16 13
f 13 14 15
f 17 15 21
f 33 18 26
f 10 19 16
f 13 20 14
f 4 45 27
f 20 16 24
f 14 25 21
f 17 26 18
f 26 21 31
f 24 19 29
f 34 22 42
f 20 30 25
f 30 24 32
f 29 23 35
f 37 30 32
f 29 35 36
f 32 29 36
f 52 48 54
f 27 46 28
f 33 31 37
f 32 39 37
f 42 33 41
f 35 38 36
f 39 36 38
f 41 37 40
f 28 46 35
f 40 48 49
f 41 40 49
f 41 49 44
f 38 35 43
f 53 41 44
f 38 43 47
f 39 38 47
f 42 60 68
f 48 51 54
f 56 51 50
f 49 52 44
f 48 47 51
f 53 44 59
f 53 59 60
f 59 52 58
f 51 57 54
f 45 1 61
f 66 57 56
f 54 63 58
f 74 65 73
f 68 60 77
f 57 62 63
f 55 69 65
f 56 55 65
f 56 65 66
f 63 71 64
f 70 66 74
f 62 76 71
f 61 80 69
f 67 64 72
f 67 72 79
f 77 67 79
f 84 76 75
f 76 70 75
f 81 69 90
f 1 89 80
f 82 73 81
f 72 85 79
f 85 92 93
f 75 74 82
f 86 79 94
f 77 95 87
f 75 83 84
f 91 88 96
f 80 100 90
f 85 93 94
f 81 90 88
f 83 82 88
f 97 95 94
f 83 91 92
f 96 90 101
f 122 95 104
f 113 105 112
f 98 96 102
f 109 99 108
f 102 101 110
f 104 97 109
f 103 98 106
f 106 102 105
f 103 106 107
f 103 107 108
f 101 111 110
f 118 112 117
f 106 113 107
f 104 121 122
f 108 120 115
f 112 110 116
f 120 114 119
f 111 5 116
f 119 113 118
f 4 111 89
f 118 2 119
f 119 8 3
f 117 116 6
f 121 120 9
f 118 117 7
f 2 118 7
f 122 121 22
f 19 10 12
f 33 42 18
f 37 31 30
f 52 49 48
f 56 57 51
f 59 44 52
f 66 62 57
f 74 66 65
f 84 78 76
f 81 73 69
f 82 74 73
f 85 84 92
f 91 83 88
f 97 104 95
f 122 87 95
f 113 106 105
f 118 113 112
f 119 114 113
f 4 5 111
o Sphere.001
v -0.011448 3.199608 0.082319
v -0.061672 2.494253 -0.699848
v -0.051869 2.106047 -0.578415
v 0.013963 3.187135 -0.141771
v -0.049004 3.125408 -0.322934
v 0.054055 2.939729 -0.548836
v 0.040543 2.711330 -0.671379
v 0.065056 2.294807 -0.672783
v 0.073193 1.951537 -0.439224
v 0.269670 2.841103 -0.556094
v 0.203779 2.569279 -0.671771
v 0.190872 3.045215 -0.405373
v 0.338946 2.437724 -0.615753
v 0.441460 2.356807 -0.527325
v 0.235812 2.167878 -0.578496
v 0.423075 2.710610 -0.524142
v 0.268525 1.997052 -0.414278
v 0.309584 1.915578 -0.243572
v 0.480817 2.852289 -0.376510
v 0.551186 2.500000 -0.436397
v 0.437002 2.158808 -0.439627
v 0.146504 1.851554 -0.230956
v 0.347475 3.051924 -0.274090
v 0.607777 2.637998 -0.325650
v 0.607777 2.362002 -0.325650
v 0.486879 2.056743 -0.251622
v 0.210821 3.153022 -0.165079
v 0.386248 3.089410 -0.031119
v 0.595158 2.832803 -0.182643
v 0.676231 2.500000 -0.192249
v 0.643064 2.278339 -0.188871
v 0.700366 2.580858 -0.045167
v 0.543022 2.052722 -0.050556
v 0.117913 1.810537 -0.078787
v 0.516767 2.984059 0.034111
v 0.646680 2.769642 0.052260
v 0.673674 2.294957 0.054582
v 0.578937 2.847970 0.199723
v 0.669368 2.569282 0.215274
v 0.626331 2.295746 0.246041
v 0.521034 2.052722 0.161098
v 0.319023 1.869072 0.001784
v 0.419723 2.947278 0.348226
v 0.360083 2.001037 0.342600
v 0.138389 3.190494 0.018025
v 0.288143 3.127162 0.155068
v 0.529815 2.705043 0.419657
v 0.536033 2.430718 0.455043
v 0.482514 2.167197 0.393385
v 0.345752 2.831777 0.514820
v 0.378847 2.568970 0.588432
v 0.345752 2.168223 0.514820
v 0.295159 1.913340 0.256482
v 0.325649 2.362002 0.607777
v 0.175816 3.045498 0.413863
v 0.182643 2.832803 0.595158
v 0.192887 2.569282 0.676159
v 0.182643 2.167197 0.595158
v 0.133834 1.955594 0.426945
v 0.157310 1.851554 0.223735
v 0.071836 3.153022 0.257946
v -0.065391 2.552050 0.701331
v 0.068274 2.362002 0.686134
v -0.052260 2.230358 0.646680
v -0.056354 2.947278 0.542451
v -0.052260 2.769642 0.646680
v -0.056354 2.052722 0.542451
v 0.067002 1.811848 0.125352
v -0.122088 3.084422 0.374518
v -0.199494 2.637998 0.660032
v -0.199494 2.362002 0.660032
v -0.277530 2.155966 0.550496
v -0.259651 2.947278 0.479594
v -0.295755 2.769642 0.577455
v -0.463295 2.580859 0.527171
v -0.342227 2.500000 0.614108
v -0.098683 1.868727 0.303578
v -0.399434 2.280592 0.537956
v -0.265768 2.001037 0.420002
v -0.177620 3.147246 0.206817
v -0.423419 2.947278 0.343722
v -0.494225 2.769642 0.420318
v -0.625536 2.569283 0.321092
v -0.532568 2.362002 0.437964
v -0.487704 2.152030 0.370408
v -0.283244 1.916161 0.269491
v -0.062086 1.800392 0.055253
v -0.568255 2.836378 0.243376
v -0.139265 3.190160 -0.013716
v -0.388398 3.063958 0.179635
v -0.700612 2.552051 0.072688
v -0.659630 2.362002 0.200821
v -0.595158 2.167197 0.182643
v -0.454319 2.001037 0.201566
v -0.310094 1.874579 0.097695
v -0.619354 2.832803 0.063024
v -0.532596 2.040605 -0.030610
v -0.686269 2.637998 -0.066895
v -0.669208 2.280592 -0.033245
v -0.269464 3.150413 -0.005838
v -0.438421 3.049619 -0.064315
v -0.596327 2.832803 -0.178790
v -0.669367 2.430717 -0.215274
v -0.304695 1.869783 -0.102626
v -0.516446 2.831777 -0.343318
v -0.607426 2.580859 -0.351547
v -0.533447 2.362002 -0.436892
v -0.523706 2.160403 -0.338913
v -0.506319 2.050316 -0.199624
v -0.420002 2.998963 -0.265768
v -0.228961 3.120902 -0.244029
v -0.396497 2.832803 -0.479960
v -0.436959 2.569283 -0.550874
v -0.420584 2.278340 -0.521836
v -0.297810 1.945105 -0.318973
v -0.195276 3.002948 -0.453431
v -0.182643 2.832803 -0.595158
v -0.210635 2.588951 -0.667264
v -0.201833 2.289819 -0.643966
v -0.216866 2.050316 -0.499176
v -0.077024 1.873407 -0.315730
v -0.103316 1.810782 -0.097118
s 0
f 130 137 125
f 129 133 124
f 209 244 156
f 126 149 127
f 137 139 131
f 128 132 129
f 133 135 130
f 132 138 133
f 149 145 134
f 131 139 140
f 136 143 137
f 135 138 142
f 126 123 167
f 138 141 146
f 142 147 136
f 143 148 139
f 141 145 151
f 140 164 144
f 142 146 152
f 147 153 143
f 149 150 145
f 152 153 147
f 148 153 155
f 150 157 145
f 146 151 154
f 149 167 168
f 155 159 163
f 154 158 161
f 164 163 175
f 156 164 190
f 209 156 190
f 161 162 159
f 161 170 162
f 168 165 157
f 175 182 164
f 161 169 170
f 167 183 168
f 168 183 177
f 168 177 165
f 165 177 172
f 165 172 169
f 169 172 173
f 176 180 174
f 172 177 178
f 179 185 176
f 181 199 182
f 185 186 180
f 177 183 191
f 180 186 189
f 180 189 181
f 181 189 199
f 184 188 192
f 184 193 185
f 199 209 190
f 184 192 198
f 183 123 202
f 193 194 186
f 191 195 187
f 199 201 208
f 192 196 197
f 198 200 193
f 193 200 194
f 202 212 191
f 194 200 207
f 207 216 201
f 208 217 199
f 197 204 205
f 206 207 200
f 205 214 206
f 211 222 202
f 208 216 217
f 203 210 204
f 210 212 218
f 213 221 214
f 214 221 215
f 212 222 223
f 215 221 219
f 215 219 216
f 213 218 220
f 213 220 225
f 213 225 221
f 219 221 231
f 218 223 224
f 225 230 221
f 220 224 228
f 222 211 233
f 222 233 223
f 244 144 156
f 224 232 227
f 226 231 237
f 229 236 230
f 230 237 231
f 227 232 234
f 237 243 226
f 235 236 229
f 230 236 242
f 233 238 232
f 234 238 239
f 237 242 243
f 211 123 126
f 242 241 125
f 238 127 128
f 125 131 242
f 239 128 129
f 124 130 241
f 128 127 134
f 125 137 131
f 243 131 144
f 141 134 145
f 124 133 130
f 130 135 137
f 127 149 134
f 128 134 132
f 133 129 132
f 131 140 144
f 133 138 135
f 135 136 137
f 139 137 143
f 155 140 148
f 132 141 138
f 135 142 136
f 126 167 149
f 142 138 146
f 136 147 143
f 139 148 140
f 148 143 153
f 146 141 151
f 156 144 164
f 142 152 147
f 152 146 154
f 151 145 157
f 159 152 154
f 151 157 158
f 154 151 158
f 174 170 176
f 149 168 150
f 155 153 159
f 154 161 159
f 164 155 163
f 157 160 158
f 161 158 160
f 163 159 162
f 150 168 157
f 162 170 171
f 163 162 171
f 163 171 166
f 160 157 165
f 175 163 166
f 160 165 169
f 161 160 169
f 164 182 190
f 170 173 176
f 178 173 172
f 171 174 166
f 170 169 173
f 175 166 181
f 175 181 182
f 181 174 180
f 173 179 176
f 167 123 183
f 188 179 178
f 176 185 180
f 196 187 195
f 190 182 199
f 179 184 185
f 177 191 187
f 178 177 187
f 178 187 188
f 185 193 186
f 192 188 196
f 184 198 193
f 183 202 191
f 189 186 194
f 189 194 201
f 199 189 201
f 206 198 197
f 198 192 197
f 203 191 212
f 123 211 202
f 204 195 203
f 194 207 201
f 207 214 215
f 197 196 204
f 208 201 216
f 199 217 209
f 197 205 206
f 213 210 218
f 202 222 212
f 207 215 216
f 203 212 210
f 205 204 210
f 219 217 216
f 205 213 214
f 218 212 223
f 244 217 226
f 235 227 234
f 220 218 224
f 231 221 230
f 224 223 232
f 226 219 231
f 225 220 228
f 228 224 227
f 225 228 229
f 225 229 230
f 223 233 232
f 240 234 239
f 228 235 229
f 226 243 244
f 230 242 237
f 234 232 238
f 242 236 241
f 233 127 238
f 241 235 240
f 126 233 211
f 240 124 241
f 241 130 125
f 239 238 128
f 243 242 131
f 240 239 129
f 124 240 129
f 244 243 144
f 141 132 134
f 155 164 140
f 159 153 152
f 174 171 170
f 178 179 173
f 181 166 174
f 188 184 179
f 196 188 187
f 206 200 198
f 203 195 191
f 204 196 195
f 207 206 214
f 213 205 210
f 219 226 217
f 244 209 217
f 235 228 227
f 240 235 234
f 241 236 235
f 126 127 233
o Sphere.002
v -0.009813 4.099664 0.070560
v -0.052861 3.495074 -0.599869
v -0.044459 3.162326 -0.495785
v 0.011969 4.088973 -0.121518
v -0.042004 4.036064 -0.276801
v 0.046333 3.876910 -0.470431
v 0.034751 3.681140 -0.575468
v 0.055763 3.324121 -0.576672
v 0.062737 3.029889 -0.376478
v 0.231145 3.792374 -0.476652
v 0.174668 3.559382 -0.575804
v 0.163605 3.967327 -0.347462
v 0.290525 3.446620 -0.527788
v 0.378395 3.377264 -0.451993
v 0.202125 3.215324 -0.495853
v 0.362636 3.680523 -0.449265
v 0.230164 3.068901 -0.355096
v 0.265358 2.999066 -0.208776
v 0.412129 3.801962 -0.322723
v 0.472445 3.500000 -0.374055
v 0.374573 3.207550 -0.376823
v 0.125575 2.944189 -0.197962
v 0.297836 3.973078 -0.234934
v 0.520952 3.618284 -0.279128
v 0.520952 3.381716 -0.279128
v 0.417325 3.120065 -0.215676
v 0.180703 4.059733 -0.141497
v 0.331070 4.005208 -0.026673
v 0.510136 3.785260 -0.156551
v 0.579627 3.500000 -0.164785
v 0.551198 3.310005 -0.161890
v 0.600314 3.569307 -0.038715
v 0.465448 3.116619 -0.043333
v 0.101068 2.909032 -0.067532
v 0.442943 3.914908 0.029238
v 0.554297 3.731122 0.044794
v 0.577435 3.324249 0.046785
v 0.496232 3.798260 0.171191
v 0.573744 3.559385 0.184521
v 0.536855 3.324925 0.210892
v 0.446601 3.116619 0.138084
v 0.273449 2.959205 0.001529
v 0.359763 3.883381 0.298480
v 0.308643 3.072318 0.293657
v 0.118619 4.091852 0.015450
v 0.246980 4.037568 0.132916
v 0.454128 3.675751 0.359706
v 0.459457 3.440615 0.390037
v 0.413584 3.214740 0.337187
v 0.296359 3.784380 0.441274
v 0.324726 3.559117 0.504371
v 0.296359 3.215620 0.441274
v 0.252994 2.997149 0.219842
v 0.279128 3.381716 0.520952
v 0.150700 3.967570 0.354740
v 0.156551 3.785260 0.510136
v 0.165332 3.559385 0.579565
v 0.156551 3.214740 0.510136
v 0.114715 3.033366 0.365953
v 0.134837 2.944189 0.191773
v 0.061574 4.059733 0.221097
v -0.056049 3.544614 0.601141
v 0.058521 3.381716 0.588115
v -0.044794 3.268878 0.554297
v -0.048304 3.883381 0.464958
v -0.044794 3.731122 0.554297
v -0.048304 3.116619 0.464958
v 0.057430 2.910155 0.107444
v -0.104647 4.000934 0.321016
v -0.170995 3.618284 0.565742
v -0.170995 3.381716 0.565742
v -0.237883 3.205114 0.471854
v -0.222558 3.883381 0.411080
v -0.253505 3.731122 0.494962
v -0.397110 3.569307 0.451861
v -0.293338 3.500000 0.526378
v -0.084585 2.958909 0.260209
v -0.342372 3.311936 0.461105
v -0.227801 3.072318 0.360002
v -0.152246 4.054782 0.177272
v -0.362931 3.883381 0.294619
v -0.423621 3.731122 0.360273
v -0.536174 3.559386 0.275222
v -0.456487 3.381716 0.375397
v -0.418032 3.201740 0.317492
v -0.242780 2.999567 0.230992
v -0.053216 2.900336 0.047360
v -0.487076 3.788324 0.208608
v -0.119370 4.091565 -0.011757
v -0.332913 3.983393 0.153973
v -0.600525 3.544615 0.062304
v -0.565397 3.381716 0.172132
v -0.510136 3.214740 0.156551
v -0.389416 3.072318 0.172771
v -0.265795 2.963925 0.083739
v -0.530875 3.785260 0.054020
v -0.456511 3.106233 -0.026237
v -0.588231 3.618284 -0.057339
v -0.573607 3.311936 -0.028496
v -0.230969 4.057497 -0.005004
v -0.375789 3.971102 -0.055127
v -0.511137 3.785260 -0.153249
v -0.573743 3.440614 -0.184521
v -0.261168 2.959814 -0.087965
v -0.442668 3.784380 -0.294272
v -0.520651 3.569308 -0.301326
v -0.457240 3.381716 -0.374479
v -0.448891 3.208916 -0.290497
v -0.433988 3.114557 -0.171106
v -0.360002 3.927682 -0.227801
v -0.196253 4.032202 -0.209167
v -0.339855 3.785260 -0.411394
v -0.374536 3.559386 -0.472178
v -0.360501 3.310005 -0.447288
v -0.255266 3.024375 -0.273405
v -0.167379 3.931098 -0.388655
v -0.156551 3.785259 -0.510136
v -0.180545 3.576243 -0.571941
v -0.172999 3.319845 -0.551971
v -0.185885 3.114556 -0.427865
v -0.066021 2.962920 -0.270626
v -0.088557 2.909242 -0.083244
s 0
f 252 259 247
f 251 255 246
f 331 366 278
f 248 271 249
f 259 261 253
f 250 254 251
f 255 257 252
f 254 260 255
f 271 267 256
f 253 261 262
f 258 265 259
f 257 260 264
f 248 245 289
f 260 263 268
f 264 269 258
f 265 270 261
f 263 267 273
f 262 286 266
f 264 268 274
f 269 275 265
f 271 272 267
f 274 275 269
f 270 275 277
f 272 279 267
f 268 273 276
f 271 289 290
f 277 281 285
f 276 280 283
f 286 285 297
f 278 286 312
f 331 278 312
f 283 284 281
f 283 292 284
f 290 287 279
f 297 304 286
f 283 291 292
f 289 305 290
f 290 305 299
f 290 299 287
f 287 299 294
f 287 294 291
f 291 294 295
f 298 302 296
f 294 299 300
f 301 307 298
f 303 321 304
f 307 308 302
f 299 305 313
f 302 308 311
f 302 311 303
f 303 311 321
f 306 310 314
f 306 315 307
f 321 331 312
f 306 314 320
f 305 245 324
f 315 316 308
f 313 317 309
f 321 323 330
f 314 318 319
f 320 322 315
f 315 322 316
f 324 334 313
f 316 322 329
f 329 338 323
f 330 339 321
f 319 326 327
f 328 329 322
f 327 336 328
f 333 344 324
f 330 338 339
f 325 332 326
f 332 334 340
f 335 343 336
f 336 343 337
f 334 344 345
f 337 343 341
f 337 341 338
f 335 340 342
f 335 342 347
f 335 347 343
f 341 343 353
f 340 345 346
f 347 352 343
f 342 346 350
f 344 333 355
f 344 355 345
f 366 266 278
f 346 354 349
f 348 353 359
f 351 358 352
f 352 359 353
f 349 354 356
f 359 365 348
f 357 358 351
f 352 358 364
f 355 360 354
f 356 360 361
f 359 364 365
f 333 245 248
f 364 363 247
f 360 249 250
f 247 253 364
f 361 250 251
f 246 252 363
f 250 249 256
f 247 259 253
f 365 253 266
f 263 256 267
f 246 255 252
f 252 257 259
f 249 271 256
f 250 256 254
f 255 251 254
f 253 262 266
f 255 260 257
f 257 258 259
f 261 259 265
f 277 262 270
f 254 263 260
f 257 264 258
f 248 289 271
f 264 260 268
f 258 269 265
f 261 270 262
f 270 265 275
f 268 263 273
f 278 266 286
f 264 274 269
f 274 268 276
f 273 267 279
f 281 274 276
f 273 279 280
f 276 273 280
f 296 292 298
f 271 290 272
f 277 275 281
f 276 283 281
f 286 277 285
f 279 282 280
f 283 280 282
f 285 281 284
f 272 290 279
f 284 292 293
f 285 284 293
f 285 293 288
f 282 279 287
f 297 285 288
f 282 287 291
f 283 282 291
f 286 304 312
f 292 295 298
f 300 295 294
f 293 296 288
f 292 291 295
f 297 288 303
f 297 303 304
f 303 296 302
f 295 301 298
f 289 245 305
f 310 301 300
f 298 307 302
f 318 309 317
f 312 304 321
f 301 306 307
f 299 313 309
f 300 299 309
f 300 309 310
f 307 315 308
f 314 310 318
f 306 320 315
f 305 324 313
f 311 308 316
f 311 316 323
f 321 311 323
f 328 320 319
f 320 314 319
f 325 313 334
f 245 333 324
f 326 317 325
f 316 329 323
f 329 336 337
f 319 318 326
f 330 323 338
f 321 339 331
f 319 327 328
f 335 332 340
f 324 344 334
f 329 337 338
f 325 334 332
f 327 326 332
f 341 339 338
f 327 335 336
f 340 334 345
f 366 339 348
f 357 349 356
f 342 340 346
f 353 343 352
f 346 345 354
f 348 341 353
f 347 342 350
f 350 346 349
f 347 350 351
f 347 351 352
f 345 355 354
f 362 356 361
f 350 357 351
f 348 365 366
f 352 364 359
f 356 354 360
f 364 358 363
f 355 249 360
f 363 357 362
f 248 355 333
f 362 246 363
f 363 252 247
f 361 360 250
f 365 364 253
f 362 361 251
f 246 362 251
f 366 365 266
f 263 254 256
f 277 286 262
f 281 275 274
f 296 293 292
f 300 301 295
f 303 288 296
f 310 306 301
f 318 310 309
f 328 322 320
f 325 317 313
f 326 318 317
f 329 328 336
f 335 327 332
f 341 348 339
f 366 331 339
f 357 350 349
f 362 357 356
f 363 358 357
f 248 249 355
